<svg id="Capa_1" enable-background="new 0 0 512 512" height="512" viewBox="0 0 512 512" width="512" xmlns="http://www.w3.org/2000/svg"><g id="XMLID_184_"><path id="XMLID_182_" d="m501.301 131.964c-5.888-22.172-23.237-39.633-45.266-45.56-39.928-10.768-200.035-10.768-200.035-10.768s-160.107 0-200.035 10.768c-22.029 5.926-39.378 23.388-45.266 45.56-10.699 40.188-10.699 124.036-10.699 124.036s0 83.848 10.699 124.036c5.888 22.172 23.237 39.633 45.266 45.56 39.928 10.768 200.035 10.768 200.035 10.768s160.107 0 200.035-10.768c22.029-5.927 39.378-23.388 45.266-45.56 10.699-40.188 10.699-124.036 10.699-124.036s0-83.848-10.699-124.036z" fill="#f00"/><path id="XMLID_1355_" d="m203.636 332.128 133.818-76.126-133.818-76.13z" fill="#fff"/></g></svg>